<?xml version="1.0" encoding="UTF-8"?>
<!-- Generator: Adobe Illustrator 21.0.0, SVG Export Plug-In . SVG Version: 6.00 Build 0)  -->
<svg width="154px" height="42px" viewBox="0 0 154 42" version="1.1" xmlns="http://www.w3.org/2000/svg" xmlns:xlink="http://www.w3.org/1999/xlink" xmlns:sketch="http://www.bohemiancoding.com/sketch/ns">
    <title>HIIDO</title>
    <defs>
        <style>.cls-2{fill:#00b9ef;}.cls-1{fill:#ffffff;}</style>
    </defs>
    <path class="cls-1" d="M31.77,25.66 L31.77,41.23 C31.77,41.4012083 31.9087917,41.54 32.08,41.54 L41.23,41.54 C41.4012083,41.54 41.54,41.4012083 41.54,41.23 L41.54,0.32 C41.54,0.148791728 41.4012083,0.01 41.23,0.01 L32.08,0.01 C31.9087917,0.01 31.77,0.148791728 31.77,0.32 L31.77,15.89 L9.77,15.89 L9.77,0.32 C9.77,0.148791728 9.63120827,0.01 9.46,0.01 L0.32,0.01 C0.148791728,0.01 0.01,0.148791728 0.01,0.32 L0.01,41.23 C0.01,41.4012083 0.148791728,41.54 0.32,41.54 L9.47,41.54 C9.64120827,41.54 9.78,41.4012083 9.78,41.23 L9.78,25.66 L31.78,25.66 L31.77,25.66 Z" id="Shape" sketch:type="MSShapeGroup"></path>
    <rect class="cls-1" id="Rectangle-path" sketch:type="MSShapeGroup" x="46.43" y="0" width="9.77" height="41.54" rx="0.31"></rect>
    <rect class="cls-1" id="Rectangle-path" sketch:type="MSShapeGroup" x="62.37" y="0" width="9.77" height="41.54" rx="0.31"></rect>
    <path class="cls-2" d="M133.18,0.12 C125.755553,0.112380173 118.892221,4.07023483 115.18,10.5 L106.01,26.28 C104.049,29.668364 100.434896,31.7591367 96.52,31.77 L88.01,31.77 L88.01,9.77 L96.52,9.77 C100.445617,9.77017806 104.073623,11.8623789 106.04,15.26 L106.04,15.26 L107.04,16.98 C107.09496,17.0774242 107.198143,17.1376845 107.31,17.1376845 C107.421857,17.1376845 107.52504,17.0774242 107.58,16.98 L112.38,8.67 C112.435376,8.57408567 112.435376,8.45591433 112.38,8.36 C111.105893,6.09879929 109.270097,4.20445023 107.05,2.86 C103.859114,0.982834997 100.222076,-0.00154862381 96.52,0.01 L78.52,0.01 C78.3487917,0.01 78.21,0.148791728 78.21,0.32 L78.21,41.23 C78.21,41.4012083 78.3487917,41.54 78.52,41.54 L96.52,41.54 C103.944447,41.5476198 110.807779,37.5897652 114.52,31.16 L123.69,15.38 C126.179331,11.0683518 131.25427,8.96624325 136.063289,10.2548159 C140.872308,11.5433886 144.216279,15.9013375 144.216279,20.88 C144.216279,25.8586625 140.872308,30.2166114 136.063289,31.5051841 C131.25427,32.7937568 126.179331,30.6916482 123.69,26.38 L123.69,26.38 L122.69,24.66 C122.63504,24.5625758 122.531857,24.5023155 122.42,24.5023155 C122.308143,24.5023155 122.20496,24.5625758 122.15,24.66 L117.35,32.96 C117.294624,33.0559143 117.294624,33.1740857 117.35,33.27 L117.35,33.27 C118.663821,35.5875464 120.564042,37.5188064 122.86,38.87 C126.861741,41.1734144 131.516929,42.0777101 136.09,41.44 C145.519183,40.2171009 152.873241,32.6768111 153.86,23.22 C154.520991,17.3366429 152.641076,11.4506784 148.692175,7.03967174 C144.743274,2.62866512 139.100365,0.111476239 133.18,0.12 L133.18,0.12 Z" id="Shape" sketch:type="MSShapeGroup"></path>
</svg>
